Coordinates
version=1
nRows=11
nColumns=40
inDegrees=yes

Units are S.I. units (second, meters, Newtons, ...)
Angles are in degrees.

endheader
time	pelvis_tilt	pelvis_list	pelvis_rotation	pelvis_tx	pelvis_ty	pelvis_tz	hip_flexion_r	hip_adduction_r	hip_rotation_r	knee_angle_r	knee_angle_r_beta	ankle_angle_r	subtalar_angle_r	mtp_angle_r	hip_flexion_l	hip_adduction_l	hip_rotation_l	knee_angle_l	knee_angle_l_beta	ankle_angle_l	subtalar_angle_l	mtp_angle_l	lumbar_extension	lumbar_bending	lumbar_rotation	arm_flex_r	arm_add_r	arm_rot_r	elbow_flex_r	pro_sup_r	wrist_flex_r	wrist_dev_r	arm_flex_l	arm_add_l	arm_rot_l	elbow_flex_l	pro_sup_l	wrist_flex_l	wrist_dev_l
     55.42000000	     -2.63829495	     -5.54841985	      3.02870687	      1.10015232	      0.93074948	      0.48416735	     11.42812284	      3.70118911	    -12.99983636	     17.18339083	     17.18339083	     10.24925273	     -0.71248899	     -4.55731874	     29.25994734	    -13.47016237	      1.20668899	     58.65584013	     58.65584013	     11.73504759	    -18.53945510	     13.19693532	    -10.87415428	      6.67016280	      2.40153507	     15.55635957	    -19.67071668	     -0.28799416	     47.82807992	     45.18816807	      0.00000000	      0.00000000	      5.64698478	    -10.25712608	     -6.79772701	     41.23375100	     45.21557523	      0.00000000	      0.00000000
     55.43428571	     -2.73817179	     -5.31035053	      3.55341886	      1.09892466	      0.93124462	      0.48413103	     10.91587845	      3.53160249	    -13.14946855	     16.68956070	     16.68956070	     10.38159383	     -1.02184294	     -4.54772634	     30.35146081	    -13.00709783	      1.16113896	     55.81504335	     55.81504335	     11.88835056	    -18.56958136	     13.20159554	    -10.95045506	      6.37342548	      2.33855227	     16.76157526	    -19.80797229	     -0.41902584	     48.83319605	     45.16982915	      0.00000000	      0.00000000	      4.78265513	    -10.35315057	     -6.89881919	     40.55683822	     45.23292021	      0.00000000	      0.00000000
     55.44857143	     -2.85551241	     -5.10083404	      4.05805530	      1.09770101	      0.93167586	      0.48412593	     10.40860634	      3.40462479	    -13.28884801	     16.15960626	     16.15960626	     10.38390122	     -1.37976439	     -4.87462690	     31.13927448	    -12.56786240	      0.99351710	     52.42760536	     52.42760536	     11.31809678	    -18.56918050	     11.57987583	    -11.03213719	      6.10389485	      2.44083919	     17.58645061	    -20.26368805	     -0.04086751	     50.59311788	     45.12209081	      0.00000000	      0.00000000	      4.45140988	    -10.23205141	     -7.60555349	     38.81817337	     45.39316732	      0.00000000	      0.00000000
     55.46285714	     -3.00700477	     -4.82936746	      4.54996307	      1.09643714	      0.93200145	      0.48398694	     10.00211173	      3.17469749	    -13.46705784	     15.76791060	     15.76791060	     10.55666121	     -1.62981683	     -4.82705247	     31.78203901	    -11.89879609	      0.96002703	     48.85310816	     48.85310816	     11.28665868	    -18.39511818	     11.82688891	    -11.07231125	      5.74152530	      2.46654239	     18.71346622	    -20.45969384	     -0.17314460	     51.35922035	     45.11034185	      0.00000000	      0.00000000	      3.70667086	    -10.33416564	     -7.64599203	     38.21378542	     45.39644054	      0.00000000	      0.00000000
     55.47714286	     -3.16853506	     -4.59947874	      5.03595481	      1.09518344	      0.93217792	      0.48375355	      9.63345020	      2.98096792	    -13.64669176	     15.42576183	     15.42576183	     10.75205729	     -1.87467751	     -4.81421431	     32.24224162	    -11.19023665	      1.03252816	     45.06767319	     45.06767319	     11.18142502	    -18.02108929	     11.98451699	    -11.11906331	      5.41984254	      2.41840791	     19.88364973	    -20.63309105	     -0.26853503	     52.24707411	     45.09241206	      0.00000000	      0.00000000	      3.00586172	    -10.42229036	     -7.69628506	     37.47277396	     45.39999108	      0.00000000	      0.00000000
     55.49142857	     -3.29732082	     -4.38479416	      5.52612978	      1.09394451	      0.93222724	      0.48338196	      9.27308284	      2.78596641	    -13.82623976	     15.16131426	     15.16131426	     10.96142817	     -2.10954418	     -4.84416405	     32.53691084	    -10.43318976	      1.21723882	     41.20731576	     41.20731576	     10.98086174	    -17.45067630	     12.05026448	    -11.17828411	      5.14190976	      2.30898040	     20.98254291	    -20.70278745	     -0.30121762	     53.21514250	     45.06822874	      0.00000000	      0.00000000	      2.41605625	    -10.53325512	     -7.77517729	     36.62125082	     45.40874613	      0.00000000	      0.00000000
     55.50571429	     -3.36657227	     -4.25532605	      6.01421841	      1.09278903	      0.93218749	      0.48288734	      8.87488382	      2.66631468	    -14.10626967	     14.93790242	     14.93790242	     11.14776483	     -2.26450634	     -5.09575758	     32.49014553	     -9.76939526	      1.40756135	     36.96542520	     36.96542520	      9.28569504	    -17.05488559	      8.37120201	    -11.32733007	      5.01876826	      2.43729725	     21.38965052	    -21.28044052	      0.33522487	     55.82699684	     44.98858942	      0.00000000	      0.00000000	      2.93001832	    -10.28421013	     -8.89556524	     33.51373220	     45.63280974	      0.00000000	      0.00000000
     55.52000000	     -3.52974715	     -4.08177246	      6.45975473	      1.09158642	      0.93193147	      0.48228504	      8.64525990	      2.48038429	    -14.25670672	     14.84514677	     14.84514677	     11.41842647	     -2.56040912	     -5.15087859	     32.64571125	     -9.03688502	      1.64958070	     33.25327115	     33.25327115	      9.27905805	    -15.73991964	      8.72021501	    -11.35858781	      4.75475733	      2.37198297	     22.35664929	    -21.24764834	      0.19007401	     56.60178877	     44.97641353	      0.00000000	      0.00000000	      2.40117537	    -10.37476520	     -8.97604129	     33.08333946	     45.64301794	      0.00000000	      0.00000000
     55.53428571	     -3.70073218	     -4.01136877	      6.91304244	      1.09041114	      0.93149317	      0.48156819	      8.47037279	      2.38275493	    -14.47303836	     14.82334060	     14.82334060	     11.69412489	     -2.83569309	     -5.22631575	     32.81577440	     -8.40589280	      1.95915013	     29.80457067	     29.80457067	      9.30877986	    -14.18999759	      8.99294301	    -11.35608292	      4.59228926	      2.24990463	     23.30101215	    -21.18804639	      0.09439327	     57.46503406	     44.95807570	      0.00000000	      0.00000000	      1.96895406	    -10.40761133	     -9.03398900	     32.60030956	     45.65032138	      0.00000000	      0.00000000
     55.54857143	     -3.78301647	     -3.87233845	      7.34725022	      1.08933279	      0.93115791	      0.48067721	      8.20307211	      2.20626575	    -14.63730040	     14.84737259	     14.84737259	     12.01885340	     -3.07035506	     -5.30720765	     32.84111580	     -7.75438235	      2.11590185	     26.64469174	     26.64469174	      9.27272080	    -12.51661177	      9.18420112	    -11.49410010	      4.39057510	      1.97147588	     24.17070161	    -20.88890586	      0.07983311	     58.64045127	     44.92649083	      0.00000000	      0.00000000	      1.58839577	    -10.53008979	     -9.13334206	     31.92012933	     45.66693588	      0.00000000	      0.00000000
     55.56285714	     -3.86757425	     -3.82284115	      7.76858506	      1.08834759	      0.93065777	      0.47965112	      7.95547118	      2.10963795	    -14.87341482	     14.90455238	     14.90455238	     12.35953757	     -3.26855089	     -5.37058060	     32.91423392	     -7.21039144	      2.23865765	     23.93378780	     23.93378780	      9.30367478	    -10.87653970	      9.27116476	    -11.56267728	      4.27089370	      1.73230216	     24.92998810	    -20.61717830	      0.11207642	     60.00842587	     44.88796877	      0.00000000	      0.00000000	      1.34941065	    -10.57167648	     -9.27278175	     31.17076808	     45.69470226	      0.00000000	      0.00000000
